G04*
G04 #@! TF.GenerationSoftware,Altium Limited,Altium Designer,23.9.2 (47)*
G04*
G04 Layer_Color=8388736*
%FSLAX44Y44*%
%MOMM*%
G71*
G04*
G04 #@! TF.SameCoordinates,EBCB506E-6E98-4729-9E24-7AD58DD85887*
G04*
G04*
G04 #@! TF.FilePolarity,Negative*
G04*
G01*
G75*
%ADD14R,0.9032X1.1032*%
G04:AMPARAMS|DCode=15|XSize=0.9332mm|YSize=0.5032mm|CornerRadius=0mm|HoleSize=0mm|Usage=FLASHONLY|Rotation=45.000|XOffset=0mm|YOffset=0mm|HoleType=Round|Shape=Rectangle|*
%AMROTATEDRECTD15*
4,1,4,-0.1520,-0.5079,-0.5079,-0.1520,0.1520,0.5079,0.5079,0.1520,-0.1520,-0.5079,0.0*
%
%ADD15ROTATEDRECTD15*%

G04:AMPARAMS|DCode=16|XSize=0.9332mm|YSize=0.5032mm|CornerRadius=0mm|HoleSize=0mm|Usage=FLASHONLY|Rotation=315.000|XOffset=0mm|YOffset=0mm|HoleType=Round|Shape=Rectangle|*
%AMROTATEDRECTD16*
4,1,4,-0.5079,0.1520,-0.1520,0.5079,0.5079,-0.1520,0.1520,-0.5079,-0.5079,0.1520,0.0*
%
%ADD16ROTATEDRECTD16*%

%ADD17C,2.0828*%
D14*
X184000Y190500D02*
D03*
X197000D02*
D03*
X228450Y152400D02*
D03*
X241450D02*
D03*
X209700Y88900D02*
D03*
X196700D02*
D03*
D15*
X197324Y147966D02*
D03*
X200859Y144430D02*
D03*
X204395Y140895D02*
D03*
X207930Y137359D02*
D03*
X211466Y133824D02*
D03*
X183676Y106034D02*
D03*
X180141Y109570D02*
D03*
X176605Y113105D02*
D03*
X173070Y116641D02*
D03*
X169534Y120176D02*
D03*
D16*
X211466D02*
D03*
X207930Y116641D02*
D03*
X204395Y113105D02*
D03*
X200859Y109570D02*
D03*
X197324Y106034D02*
D03*
X169534Y133824D02*
D03*
X173070Y137359D02*
D03*
X176605Y140895D02*
D03*
X180141Y144430D02*
D03*
X183676Y147966D02*
D03*
D17*
X254000Y317500D02*
D03*
X228600D02*
D03*
X203200D02*
D03*
X177800D02*
D03*
X152400D02*
D03*
X127000D02*
D03*
X266700Y12700D02*
D03*
Y38100D02*
D03*
Y63500D02*
D03*
Y88900D02*
D03*
Y114300D02*
D03*
Y139700D02*
D03*
Y165100D02*
D03*
Y190500D02*
D03*
Y215900D02*
D03*
Y241300D02*
D03*
X114300D02*
D03*
Y215900D02*
D03*
Y190500D02*
D03*
Y165100D02*
D03*
Y139700D02*
D03*
Y114300D02*
D03*
Y88900D02*
D03*
Y63500D02*
D03*
Y38100D02*
D03*
Y12700D02*
D03*
M02*
