G04*
G04 #@! TF.GenerationSoftware,Altium Limited,Altium Designer,23.9.2 (47)*
G04*
G04 Layer_Physical_Order=2*
G04 Layer_Color=16711680*
%FSLAX44Y44*%
%MOMM*%
G71*
G04*
G04 #@! TF.SameCoordinates,EBCB506E-6E98-4729-9E24-7AD58DD85887*
G04*
G04*
G04 #@! TF.FilePolarity,Positive*
G04*
G01*
G75*
%ADD10C,0.2000*%
%ADD18C,1.8796*%
%ADD19C,0.5000*%
%ADD20C,0.6000*%
G36*
X269525Y328045D02*
X272158Y326954D01*
X274419Y325219D01*
X276154Y322958D01*
X277244Y320325D01*
X277616Y317502D01*
X277616Y317500D01*
Y245933D01*
X276467Y245351D01*
X276346Y245389D01*
X275021Y247684D01*
X273085Y249620D01*
X270714Y250989D01*
X268069Y251698D01*
X265331D01*
X262687Y250989D01*
X260315Y249620D01*
X258379Y247684D01*
X257011Y245313D01*
X256302Y242669D01*
Y239931D01*
X257011Y237286D01*
X258379Y234916D01*
X260315Y232980D01*
X262687Y231611D01*
X265331Y230902D01*
X268069D01*
X270714Y231611D01*
X273085Y232980D01*
X275021Y234916D01*
X276346Y237211D01*
X276467Y237249D01*
X277616Y236667D01*
Y220533D01*
X276467Y219951D01*
X276346Y219989D01*
X275021Y222285D01*
X273085Y224221D01*
X270714Y225589D01*
X268069Y226298D01*
X265331D01*
X262687Y225589D01*
X260315Y224221D01*
X258379Y222285D01*
X257011Y219914D01*
X256302Y217269D01*
Y214531D01*
X257011Y211887D01*
X258379Y209515D01*
X260315Y207579D01*
X262687Y206211D01*
X265331Y205502D01*
X268069D01*
X270714Y206211D01*
X273085Y207579D01*
X275021Y209515D01*
X276346Y211811D01*
X276467Y211849D01*
X277616Y211267D01*
Y195133D01*
X276467Y194551D01*
X276346Y194589D01*
X275021Y196884D01*
X273085Y198820D01*
X270714Y200189D01*
X268069Y200898D01*
X265331D01*
X262687Y200189D01*
X260315Y198820D01*
X258379Y196884D01*
X257011Y194513D01*
X256482Y192539D01*
X213035D01*
X212941Y192766D01*
X211816Y193891D01*
X210346Y194500D01*
X208754D01*
X207284Y193891D01*
X206159Y192766D01*
X205550Y191296D01*
Y189704D01*
X206159Y188234D01*
X207284Y187109D01*
X208754Y186500D01*
X210346D01*
X211816Y187109D01*
X212941Y188234D01*
X213035Y188461D01*
X256482D01*
X257011Y186486D01*
X258379Y184116D01*
X260315Y182180D01*
X262687Y180811D01*
X265331Y180102D01*
X268069D01*
X270714Y180811D01*
X273085Y182180D01*
X275021Y184116D01*
X276346Y186411D01*
X276467Y186449D01*
X277616Y185867D01*
Y169733D01*
X276467Y169151D01*
X276346Y169189D01*
X275021Y171485D01*
X273085Y173421D01*
X270714Y174789D01*
X268069Y175498D01*
X265331D01*
X262687Y174789D01*
X260315Y173421D01*
X258379Y171485D01*
X257011Y169114D01*
X256482Y167139D01*
X197545D01*
X187500Y177184D01*
Y178496D01*
X186967Y179783D01*
X185983Y180767D01*
X184696Y181300D01*
X183304D01*
X182017Y180767D01*
X181033Y179783D01*
X180500Y178496D01*
Y177104D01*
X181033Y175817D01*
X182017Y174833D01*
X183304Y174300D01*
X184616D01*
X195258Y163658D01*
X195258Y163658D01*
X195920Y163216D01*
X196700Y163061D01*
X196700Y163061D01*
X256482D01*
X257011Y161087D01*
X258379Y158715D01*
X260315Y156779D01*
X262687Y155411D01*
X265331Y154702D01*
X268069D01*
X270714Y155411D01*
X273085Y156779D01*
X275021Y158715D01*
X276346Y161011D01*
X276467Y161049D01*
X277616Y160467D01*
Y144333D01*
X276467Y143751D01*
X276346Y143789D01*
X275021Y146084D01*
X273085Y148020D01*
X270714Y149389D01*
X268069Y150098D01*
X267970D01*
Y139700D01*
Y129302D01*
X268069D01*
X270714Y130011D01*
X273085Y131379D01*
X275021Y133315D01*
X276346Y135611D01*
X276467Y135649D01*
X277616Y135067D01*
Y118933D01*
X276467Y118351D01*
X276346Y118389D01*
X275021Y120684D01*
X273085Y122620D01*
X270714Y123989D01*
X268069Y124698D01*
X265331D01*
X262687Y123989D01*
X260315Y122620D01*
X258379Y120684D01*
X257011Y118314D01*
X256302Y115669D01*
Y112931D01*
X257011Y110287D01*
X258379Y107915D01*
X260315Y105979D01*
X262687Y104611D01*
X265331Y103902D01*
X268069D01*
X270714Y104611D01*
X273085Y105979D01*
X275021Y107915D01*
X276346Y110211D01*
X276467Y110249D01*
X277616Y109667D01*
Y93533D01*
X276467Y92951D01*
X276346Y92989D01*
X275021Y95285D01*
X273085Y97220D01*
X270714Y98589D01*
X268069Y99298D01*
X265331D01*
X262687Y98589D01*
X260315Y97220D01*
X258379Y95285D01*
X257011Y92914D01*
X256302Y90269D01*
Y87531D01*
X257011Y84887D01*
X258379Y82515D01*
X260315Y80580D01*
X262687Y79211D01*
X265331Y78502D01*
X268069D01*
X270714Y79211D01*
X273085Y80580D01*
X275021Y82515D01*
X276346Y84811D01*
X276467Y84849D01*
X277616Y84267D01*
Y68133D01*
X276467Y67551D01*
X276346Y67589D01*
X275021Y69885D01*
X273085Y71821D01*
X270714Y73189D01*
X268069Y73898D01*
X265331D01*
X262687Y73189D01*
X260315Y71821D01*
X258379Y69885D01*
X257011Y67513D01*
X256302Y64869D01*
Y62131D01*
X257011Y59486D01*
X258379Y57116D01*
X260315Y55180D01*
X262687Y53811D01*
X265331Y53102D01*
X268069D01*
X270714Y53811D01*
X273085Y55180D01*
X275021Y57116D01*
X276346Y59411D01*
X276467Y59449D01*
X277616Y58867D01*
Y42733D01*
X276467Y42151D01*
X276346Y42189D01*
X275021Y44485D01*
X273085Y46420D01*
X270714Y47789D01*
X268069Y48498D01*
X265331D01*
X262687Y47789D01*
X260315Y46420D01*
X258379Y44485D01*
X257011Y42113D01*
X256302Y39469D01*
Y36731D01*
X257011Y34086D01*
X258379Y31716D01*
X260315Y29780D01*
X262687Y28411D01*
X265331Y27702D01*
X268069D01*
X270714Y28411D01*
X273085Y29780D01*
X275021Y31716D01*
X276346Y34011D01*
X276467Y34049D01*
X277616Y33467D01*
Y17333D01*
X276467Y16751D01*
X276346Y16789D01*
X275021Y19085D01*
X273085Y21021D01*
X270714Y22389D01*
X268069Y23098D01*
X265331D01*
X262687Y22389D01*
X260315Y21021D01*
X258379Y19085D01*
X257011Y16714D01*
X256302Y14069D01*
Y11331D01*
X257011Y8687D01*
X258379Y6316D01*
X260315Y4379D01*
X262611Y3054D01*
X262649Y2933D01*
X262067Y1784D01*
X118933D01*
X118351Y2933D01*
X118389Y3054D01*
X120684Y4379D01*
X122620Y6316D01*
X123989Y8687D01*
X124698Y11331D01*
Y14069D01*
X123989Y16714D01*
X122620Y19085D01*
X120684Y21021D01*
X118314Y22389D01*
X115669Y23098D01*
X112931D01*
X110287Y22389D01*
X107915Y21021D01*
X105979Y19085D01*
X104654Y16789D01*
X104533Y16751D01*
X103384Y17333D01*
Y33467D01*
X104533Y34049D01*
X104654Y34011D01*
X105979Y31716D01*
X107915Y29780D01*
X110287Y28411D01*
X112931Y27702D01*
X115669D01*
X118314Y28411D01*
X120684Y29780D01*
X122620Y31716D01*
X123989Y34086D01*
X124698Y36731D01*
Y39469D01*
X123989Y42113D01*
X122620Y44485D01*
X120684Y46420D01*
X118314Y47789D01*
X115669Y48498D01*
X112931D01*
X110287Y47789D01*
X107915Y46420D01*
X105979Y44485D01*
X104654Y42189D01*
X104533Y42151D01*
X103384Y42733D01*
Y58867D01*
X104533Y59449D01*
X104654Y59411D01*
X105979Y57116D01*
X107915Y55180D01*
X110287Y53811D01*
X112931Y53102D01*
X115669D01*
X118314Y53811D01*
X120684Y55180D01*
X122620Y57116D01*
X123989Y59486D01*
X124698Y62131D01*
Y64869D01*
X123989Y67513D01*
X122620Y69885D01*
X120684Y71821D01*
X118314Y73189D01*
X115669Y73898D01*
X112931D01*
X110287Y73189D01*
X107915Y71821D01*
X105979Y69885D01*
X104654Y67589D01*
X104533Y67551D01*
X103384Y68133D01*
Y84267D01*
X104533Y84849D01*
X104654Y84811D01*
X105979Y82515D01*
X107915Y80580D01*
X110287Y79211D01*
X112931Y78502D01*
X115669D01*
X118314Y79211D01*
X120684Y80580D01*
X122620Y82515D01*
X123989Y84887D01*
X124698Y87531D01*
Y90269D01*
X123989Y92914D01*
X122620Y95285D01*
X120684Y97220D01*
X118314Y98589D01*
X115669Y99298D01*
X112931D01*
X110287Y98589D01*
X107915Y97220D01*
X105979Y95285D01*
X104654Y92989D01*
X104533Y92951D01*
X103384Y93533D01*
Y109667D01*
X104533Y110249D01*
X104654Y110211D01*
X105979Y107915D01*
X107915Y105979D01*
X110287Y104611D01*
X112931Y103902D01*
X115669D01*
X118314Y104611D01*
X120684Y105979D01*
X122620Y107915D01*
X123989Y110287D01*
X124698Y112931D01*
Y115669D01*
X123989Y118314D01*
X122620Y120684D01*
X120684Y122620D01*
X118314Y123989D01*
X115669Y124698D01*
X112931D01*
X110287Y123989D01*
X107915Y122620D01*
X105979Y120684D01*
X104654Y118389D01*
X104533Y118351D01*
X103384Y118933D01*
Y135067D01*
X104533Y135649D01*
X104654Y135611D01*
X105979Y133315D01*
X107915Y131379D01*
X110287Y130011D01*
X112931Y129302D01*
X115669D01*
X118314Y130011D01*
X120684Y131379D01*
X122620Y133315D01*
X123989Y135687D01*
X124698Y138331D01*
Y141069D01*
X123989Y143714D01*
X122620Y146084D01*
X120684Y148020D01*
X118314Y149389D01*
X115669Y150098D01*
X112931D01*
X110287Y149389D01*
X107915Y148020D01*
X105979Y146084D01*
X104654Y143789D01*
X104533Y143751D01*
X103384Y144333D01*
Y160467D01*
X104533Y161049D01*
X104654Y161011D01*
X105979Y158715D01*
X107915Y156779D01*
X110287Y155411D01*
X112931Y154702D01*
X115669D01*
X118314Y155411D01*
X120684Y156779D01*
X122620Y158715D01*
X123989Y161087D01*
X124698Y163731D01*
Y166469D01*
X123989Y169114D01*
X122620Y171485D01*
X120684Y173421D01*
X118314Y174789D01*
X115669Y175498D01*
X112931D01*
X110287Y174789D01*
X107915Y173421D01*
X105979Y171485D01*
X104654Y169189D01*
X104533Y169151D01*
X103384Y169733D01*
Y185867D01*
X104533Y186449D01*
X104654Y186411D01*
X105979Y184116D01*
X107915Y182180D01*
X110287Y180811D01*
X112931Y180102D01*
X115669D01*
X118314Y180811D01*
X120684Y182180D01*
X122620Y184116D01*
X123989Y186486D01*
X124698Y189131D01*
Y191869D01*
X123989Y194513D01*
X122620Y196884D01*
X120684Y198820D01*
X118314Y200189D01*
X115669Y200898D01*
X112931D01*
X110287Y200189D01*
X107915Y198820D01*
X105979Y196884D01*
X104654Y194589D01*
X104533Y194551D01*
X103384Y195133D01*
Y211267D01*
X104533Y211849D01*
X104654Y211811D01*
X105979Y209515D01*
X107915Y207579D01*
X110287Y206211D01*
X112931Y205502D01*
X115669D01*
X118314Y206211D01*
X120684Y207579D01*
X122620Y209515D01*
X123989Y211887D01*
X124698Y214531D01*
Y217269D01*
X123989Y219914D01*
X122967Y221684D01*
X153842Y252558D01*
X153842Y252558D01*
X154284Y253220D01*
X154439Y254000D01*
Y307282D01*
X156413Y307811D01*
X158785Y309179D01*
X160721Y311115D01*
X162089Y313486D01*
X162798Y316131D01*
Y318869D01*
X162089Y321513D01*
X160721Y323885D01*
X158785Y325821D01*
X156489Y327146D01*
X156451Y327267D01*
X157033Y328416D01*
X173167D01*
X173749Y327267D01*
X173711Y327146D01*
X171416Y325821D01*
X169480Y323885D01*
X168111Y321513D01*
X167402Y318869D01*
Y316131D01*
X168111Y313486D01*
X169480Y311115D01*
X171416Y309179D01*
X173787Y307811D01*
X176431Y307102D01*
X179169D01*
X181814Y307811D01*
X184184Y309179D01*
X186120Y311115D01*
X187489Y313486D01*
X188198Y316131D01*
Y318869D01*
X187489Y321513D01*
X186120Y323885D01*
X184184Y325821D01*
X181889Y327146D01*
X181851Y327267D01*
X182433Y328416D01*
X198567D01*
X199149Y327267D01*
X199111Y327146D01*
X196815Y325821D01*
X194879Y323885D01*
X193511Y321513D01*
X192802Y318869D01*
Y318770D01*
X203200D01*
X213598D01*
Y318869D01*
X212889Y321513D01*
X211521Y323885D01*
X209585Y325821D01*
X207289Y327146D01*
X207251Y327267D01*
X207833Y328416D01*
X223967D01*
X224549Y327267D01*
X224511Y327146D01*
X222215Y325821D01*
X220280Y323885D01*
X218911Y321513D01*
X218202Y318869D01*
Y316131D01*
X218911Y313486D01*
X220280Y311115D01*
X222215Y309179D01*
X224587Y307811D01*
X227231Y307102D01*
X229969D01*
X232614Y307811D01*
X234984Y309179D01*
X236921Y311115D01*
X238289Y313486D01*
X238998Y316131D01*
Y318869D01*
X238289Y321513D01*
X236921Y323885D01*
X234984Y325821D01*
X232689Y327146D01*
X232651Y327267D01*
X233233Y328416D01*
X249367D01*
X249949Y327267D01*
X249911Y327146D01*
X247616Y325821D01*
X245679Y323885D01*
X244311Y321513D01*
X243602Y318869D01*
Y316131D01*
X244311Y313486D01*
X245679Y311115D01*
X247616Y309179D01*
X249986Y307811D01*
X252631Y307102D01*
X255369D01*
X258013Y307811D01*
X260385Y309179D01*
X262320Y311115D01*
X263689Y313486D01*
X264398Y316131D01*
Y318869D01*
X263689Y321513D01*
X262320Y323885D01*
X260385Y325821D01*
X258089Y327146D01*
X258051Y327267D01*
X258633Y328416D01*
X266700D01*
X266702Y328416D01*
X269525Y328045D01*
D02*
G37*
%LPC*%
G36*
X213598Y316230D02*
X204470D01*
Y307102D01*
X204569D01*
X207213Y307811D01*
X209585Y309179D01*
X211521Y311115D01*
X212889Y313486D01*
X213598Y316131D01*
Y316230D01*
D02*
G37*
G36*
X201930D02*
X192802D01*
Y316131D01*
X193511Y313486D01*
X194879Y311115D01*
X196815Y309179D01*
X199186Y307811D01*
X201831Y307102D01*
X201930D01*
Y316230D01*
D02*
G37*
G36*
X265430Y150098D02*
X265331D01*
X262687Y149389D01*
X260315Y148020D01*
X258379Y146084D01*
X257011Y143714D01*
X256302Y141069D01*
Y140970D01*
X265430D01*
Y150098D01*
D02*
G37*
G36*
Y138430D02*
X256302D01*
Y138331D01*
X257011Y135687D01*
X258379Y133315D01*
X260315Y131379D01*
X262687Y130011D01*
X265331Y129302D01*
X265430D01*
Y138430D01*
D02*
G37*
%LPD*%
D10*
X209550Y190500D02*
X266700D01*
X184000Y177800D02*
X196700Y165100D01*
X266700D01*
X152400Y254000D02*
Y317500D01*
X114300Y215900D02*
X152400Y254000D01*
D18*
X254000Y317500D02*
D03*
X228600D02*
D03*
X203200D02*
D03*
X177800D02*
D03*
X152400D02*
D03*
X127000D02*
D03*
X266700Y12700D02*
D03*
Y38100D02*
D03*
Y63500D02*
D03*
Y88900D02*
D03*
Y114300D02*
D03*
Y139700D02*
D03*
Y165100D02*
D03*
Y190500D02*
D03*
Y215900D02*
D03*
Y241300D02*
D03*
X114300D02*
D03*
Y215900D02*
D03*
Y190500D02*
D03*
Y165100D02*
D03*
Y139700D02*
D03*
Y114300D02*
D03*
Y88900D02*
D03*
Y63500D02*
D03*
Y38100D02*
D03*
Y12700D02*
D03*
D19*
X184000Y177800D02*
D03*
D20*
X184150Y88900D02*
D03*
X209550Y190500D02*
D03*
M02*
