M48
;Layer_Color=9474304
;FILE_FORMAT=2:5
INCH,LZ
;TYPE=PLATED
T01F00S00C0.01181
T02F00S00C0.04000
%
T01
X00725Y0035
X0072441Y007
X00825Y0075
T02
X0045Y0005
Y0015
Y0025
Y0035
Y0045
Y0055
Y0065
Y0075
Y0085
Y0095
X005Y0125
X006
X007
X008
X009
X01
X0105Y0095
Y0085
Y0075
Y0065
Y0055
Y0045
Y0035
Y0025
Y0015
Y0005
M30
